<svg width="33" height="34" viewBox="0 0 33 34" fill="none" xmlns="http://www.w3.org/2000/svg">
<path d="M31.2103 0.984375H1.7512C1.04274 0.984375 0.470367 1.55675 0.470367 2.26521V31.7243C0.470367 32.4328 1.04274 33.0052 1.7512 33.0052H31.2103C31.9188 33.0052 32.4911 32.4328 32.4911 31.7243V2.26521C32.4911 1.55675 31.9188 0.984375 31.2103 0.984375ZM27.5119 10.3304H24.9543C22.949 10.3304 22.5607 11.2831 22.5607 12.684V15.77H27.3478L26.7234 20.6011H22.5607V33.0052H17.5695V20.6051H13.3948V15.77H17.5695V12.2077C17.5695 8.07297 20.0951 5.81951 23.7855 5.81951C25.5546 5.81951 27.0716 5.9516 27.5159 6.01164V10.3304H27.5119Z" fill="white"/>
</svg>
