<svg width="33" height="34" viewBox="0 0 33 34" fill="none" xmlns="http://www.w3.org/2000/svg">
<path d="M31.1981 0.984375H1.73899C1.03053 0.984375 0.45816 1.55675 0.45816 2.26521V31.7243C0.45816 32.4328 1.03053 33.0052 1.73899 33.0052H31.1981C31.9066 33.0052 32.4789 32.4328 32.4789 31.7243V2.26521C32.4789 1.55675 31.9066 0.984375 31.1981 0.984375ZM9.95632 28.2701H5.20524V12.9882H9.95632V28.2701ZM7.58278 10.8988C7.03814 10.8988 6.50572 10.7373 6.05286 10.4347C5.6 10.1321 5.24704 9.70204 5.03862 9.19885C4.83019 8.69566 4.77565 8.14197 4.88191 7.60778C4.98817 7.0736 5.25044 6.58292 5.63556 6.1978C6.02069 5.81268 6.51136 5.5504 7.04555 5.44415C7.57973 5.33789 8.13342 5.39243 8.63661 5.60085C9.1398 5.80928 9.56988 6.16224 9.87247 6.6151C10.1751 7.06796 10.3366 7.60037 10.3366 8.14502C10.3326 9.66601 9.09977 10.8988 7.58278 10.8988ZM27.7439 28.2701H22.9968V20.8373C22.9968 19.0641 22.9648 16.7866 20.5272 16.7866C18.0576 16.7866 17.6773 18.7159 17.6773 20.7092V28.2701H12.9343V12.9882H17.4892V15.0775H17.5533C18.1857 13.8767 19.7347 12.6079 22.0482 12.6079C26.8593 12.6079 27.7439 15.774 27.7439 19.8886V28.2701Z" fill="white"/>
</svg>
