<svg width="35" height="28" viewBox="0 0 35 28" fill="none" xmlns="http://www.w3.org/2000/svg">
<path d="M34.1449 3.6809C32.9201 4.20924 31.5873 4.58949 30.2144 4.73759C31.6398 3.89078 32.7072 2.55297 33.2163 0.975143C31.8788 1.77082 30.4135 2.32876 28.8855 2.62421C28.2469 1.94148 27.4745 1.39758 26.6165 1.02641C25.7584 0.655236 24.8332 0.464748 23.8983 0.466813C20.1158 0.466813 17.0739 3.5328 17.0739 7.29524C17.0739 7.82359 17.1379 8.35193 17.242 8.86026C11.5783 8.56407 6.52702 5.85831 3.16884 1.71562C2.55694 2.76076 2.23629 3.95078 2.24023 5.16186C2.24023 7.5314 3.44502 9.62075 5.28221 10.8496C4.19952 10.8069 3.14219 10.5093 2.19621 9.98099V10.065C2.19621 13.3832 4.54173 16.133 7.66776 16.7654C7.08081 16.9179 6.47701 16.9958 5.87059 16.9975C5.4263 16.9975 5.00603 16.9535 4.58175 16.8935C5.44631 19.5992 7.96395 21.5645 10.9619 21.6285C8.61637 23.4657 5.67846 24.5464 2.4884 24.5464C1.91602 24.5464 1.38768 24.5264 0.839325 24.4624C3.86529 26.4036 7.45562 27.5244 11.3221 27.5244C23.8743 27.5244 30.7427 17.1256 30.7427 8.09977C30.7427 7.80357 30.7427 7.50738 30.7227 7.21119C32.0516 6.23856 33.2163 5.03378 34.1449 3.6809Z" fill="white"/>
</svg>
